<svg xmlns="http://www.w3.org/2000/svg" style="isolation:isolate" width="80" height="81" viewBox="0 0 200 202">
  <path d="M194.582 27.191L149.996 1.45c-3.35-1.933-7.479-1.934-10.829.002l-39.17 22.613L60.829 1.452C57.478-.484 53.35-.483 50 1.45L5.415 27.191C2.064 29.127 0 32.701 0 36.571v51.481c0 3.869 2.064 7.444 5.415 9.378l39.17 22.617v45.228c0 3.867 2.063 7.444 5.415 9.378l44.583 25.744c1.675.968 3.545 1.451 5.415 1.451 1.869 0 3.739-.483 5.415-1.451L150 174.653c3.351-1.934 5.414-5.509 5.414-9.378v-45.228l39.171-22.617c3.352-1.934 5.415-5.508 5.415-9.378V36.571c-.003-3.87-2.066-7.444-5.418-9.38zm-16.244 54.61l-33.756 19.488-33.755-19.488V42.825l33.755-19.489 33.756 19.489v38.976zm-44.584 77.223l-33.755 19.489-33.754-19.489v-38.978l33.752-19.488 33.757 19.488v38.978zM21.66 81.801V42.825l33.755-19.489 33.754 19.489V81.8l-33.754 19.489L21.66 81.801z" fill-rule="evenodd"/>
</svg>
